<?xml version="1.0"?><svg width="393.235" height="491.029" xmlns="http://www.w3.org/2000/svg">
 <title>C3 Healthcare Logo</title>

 <g>
  <title>Layer 1</title>
  <g id="Layer_1">
   <path fill="#003f7f" id="svg_1" stroke-linejoin="bevel" stroke="#FFFFFF" d="m195.546997,490.528992l2.141998,0l11,-449.254002l-24.141998,0l11,449.254002z"/>
   <g id="svg_2">
    <path fill="#003f7f" id="svg_3" stroke-linejoin="bevel" stroke="#FFFFFF" d="m170.192001,99.68c-21.710007,2.739998 -41.389999,-22.669998 -31.369995,-28.639999c0.970001,-2.25 0.689987,-3.419998 -1.630005,-2.989998c-23.599998,3.25 -38.520004,-16.360004 -35.919998,-36.810003c0.169998,-1.369999 -0.771004,-1.65 -1.530006,-1.699999c-0.879997,-0.060001 -1.579994,0.99 -2.019997,1.699999c-7.330002,11.820002 -19.75,19.01 -31.080002,26.590002c-13,8.709999 -33.119999,19.879997 -41.810999,21.379997c-7.68,1.32 -19.75,2.730003 -24.129999,-3.529999c-0.899,-1.5 -0.01,-1.660004 1.07,-2.25c14.399999,-7.230003 15.91,-5.629997 42.299999,-22.330002c23.160004,-14.66 45.510002,-33.919998 67,-44.799998c9.450005,-4.78 38.75,-9.15 48.970001,4.9c17.410004,23.94 -7.029007,34.37 -7.729004,38.599999c-1.349991,8.170002 6.689011,23.350002 27.600006,17.810001l2.75,-0.870003l0.649994,29.130005l-0.940002,0.519997c-4.079987,2.009003 -8.188995,3.040001 -12.179993,3.290001z"/>
    <path fill="#003f7f" id="svg_4" stroke-linejoin="bevel" stroke="#FFFFFF" d="m92.031998,44.508999c0.700005,-0.789997 3.82,-2.289997 4,-1c0.480003,3.400002 2.290001,8.030003 4.290001,11.790001c0.68,1.27 -0.809998,2.889999 -1.75,4c-13.399002,11.320004 -29.209999,22.09 -42.869999,28.149998c-4.389999,1.529999 -9.259998,2.389999 -13.950001,2.010002c-3.159,-0.25 -7.549999,-0.07 -9.069,-2.849998c-0.350998,-0.650002 0.149002,-1.529999 0.580002,-2.120003c21.209999,-8.749001 37.469002,-21.058998 58.768997,-39.98z"/>
    <path fill="#003f7f" id="svg_5" stroke-linejoin="bevel" stroke="#FFFFFF" d="m100.571999,62.27c0.620003,-0.66 1.700005,-1.439999 2.93,-0.93c2.881004,3.350002 4.471001,4.939999 7.850998,6.429996c1.080002,0.470001 2.450005,1.960007 0.649002,3.5c-18.919998,16.040001 -33.25,29.690002 -52.028999,24.550003c-0.600998,-0.159996 -0.459999,-2.050003 0.069,-2.360001c11.140999,-6.419998 23.959999,-13.481003 40.529999,-31.189999z"/>
    <path fill="#003f7f" id="svg_6" stroke-linejoin="bevel" stroke="#FFFFFF" d="m115.952003,71.989998c2.949997,-1.989998 0.489998,0.450005 13.299995,1.400002c1.660004,0.120003 -0.188995,3.639999 -0.778992,5.220001c-5.860008,8.529999 -15.860008,16.349998 -24.290009,20.419998c-4.080002,1.980003 -9.580002,3.010002 -13.640999,0.93c-0.399002,-0.199997 -0.488998,-0.919998 -0.720001,-1.139999c-0.830002,-0.839996 5.470001,-5.43 11.290001,-10.709999c5.521004,-5.021004 13.201004,-13.441002 14.840004,-16.120003z"/>
    <path fill="#003f7f" id="svg_7" stroke-linejoin="bevel" stroke="#FFFFFF" d="m223.042999,99.68c21.710007,2.739998 41.390015,-22.669998 31.369995,-28.639999c-0.970993,-2.25 -0.689987,-3.419998 1.630005,-2.989998c23.600006,3.25 38.519989,-16.360004 35.920013,-36.810003c-0.170013,-1.369999 0.769989,-1.65 1.528992,-1.699999c0.880981,-0.060001 1.579987,0.99 2.020996,1.699999c7.329987,11.820002 19.75,19.01 31.079987,26.590002c13,8.709999 33.120026,19.879997 41.810028,21.379997c7.681,1.32 19.75,2.730003 24.129974,-3.529999c0.900024,-1.5 0.011017,-1.660004 -1.069,-2.25c-14.399994,-7.230003 -15.910004,-5.629997 -42.299988,-22.330002c-23.160004,-14.66 -45.510986,-33.919998 -67,-44.799998c-9.450012,-4.78 -38.75,-9.15 -48.971008,4.9c-17.409988,23.94 7.030014,34.37 7.730011,38.599999c1.349991,8.170002 -6.690002,23.350002 -27.600998,17.810001l-2.75,-0.870003l-0.649002,29.130005l0.938995,0.519997c4.080002,2.009003 8.190994,3.040001 12.181,3.290001z"/>
    <path fill="#003f7f" id="svg_8" stroke-linejoin="bevel" stroke="#FFFFFF" d="m301.203003,44.508999c-0.700012,-0.789997 -3.820007,-2.289997 -4,-1c-0.480011,3.400002 -2.290009,8.030003 -4.290009,11.790001c-0.681,1.27 0.809998,2.889999 1.75,4c13.399017,11.320004 29.209991,22.09 42.869019,28.149998c4.390991,1.529999 9.260986,2.389999 13.949982,2.010002c3.160004,-0.25 7.550018,-0.07 9.070007,-2.849998c0.350006,-0.650002 -0.149994,-1.529999 -0.580017,-2.120003c-21.208984,-8.749001 -37.468994,-21.058998 -58.768982,-39.98z"/>
    <path fill="#003f7f" id="svg_9" stroke-linejoin="bevel" stroke="#FFFFFF" d="m292.662994,62.27c-0.619995,-0.66 -1.700012,-1.439999 -2.931,-0.93c-2.880005,3.350002 -4.470001,4.939999 -7.850006,6.429996c-1.079987,0.470001 -2.450012,1.960007 -0.649994,3.5c18.919983,16.040001 33.25,29.690002 52.029999,24.550003c0.600006,-0.159996 0.459991,-2.050003 -0.070007,-2.360001c-11.138977,-6.419998 -23.959991,-13.481003 -40.528992,-31.189999z"/>
    <path fill="#003f7f" id="svg_10" stroke-linejoin="bevel" stroke="#FFFFFF" d="m277.282013,71.989998c-2.949005,-1.989998 -0.489014,0.450005 -13.299988,1.400002c-1.660004,0.120003 0.189972,3.639999 0.779999,5.220001c5.859985,8.529999 15.859985,16.349998 24.289978,20.419998c4.080017,1.980003 9.580017,3.010002 13.640015,0.93c0.399994,-0.199997 0.48999,-0.919998 0.721008,-1.139999c0.828979,-0.839996 -5.471008,-5.43 -11.290009,-10.709999c-5.52002,-5.021004 -13.200012,-13.441002 -14.841003,-16.120003z"/>
   </g>
   <path fill="#003f7f" id="svg_11" stroke="#FFFFFF" d="m196.612,0.5c10.160004,0 18.410004,8.25 18.410004,18.41s-8.25,18.400002 -18.410004,18.400002s-18.399002,-8.240002 -18.399002,-18.400002s8.238998,-18.41 18.399002,-18.41z"/>
   <path id="svg_12" stroke-width="0.5" stroke-linejoin="bevel" stroke="#000000" fill="#FFFFFF" d="m201.501999,11.16c-0.880005,-1.48 0.369995,-4.14 3.130005,-3.25c10.660004,4.84 5.399994,23.469999 -6.380005,22.950001c-1.809998,0.049999 -2.389999,-1.710001 -1.039993,-2.66c5.149994,-3.5 9.479996,-8.640001 4.289993,-17.040001z"/>
   <path fill="#007f00" id="svg_13" stroke-linejoin="bevel" stroke="#FFFFFF" d="m260.687988,147.330002c1.188995,-13.25 -9.470001,-28.419998 -26.459991,-29.889999c-5.910004,-0.510002 -14.790009,-0.550003 -19.930008,4.079994c-4.869995,4.390007 7.858994,13.560005 14.540009,14.220009c8.94899,0.87999 13.658997,-3.419998 15.259995,-5.919998c0.550003,-0.840012 1.539993,-0.5 1.889999,0.359985c4.059998,30.312012 -26.826996,37.222 -49.365005,43.601013c4.667999,1.320999 8.977997,2.619995 12.544998,4.098999c6.315002,2.621002 11.710007,5.442993 16.313004,8.404999c17.681015,-9.139008 33.649017,-21.456009 35.207001,-38.955002z"/>
   <path fill="#003f7f" id="svg_14" stroke-linejoin="bevel" stroke="#FFFFFF" d="m177.638,412.779999c-10.690002,10.910004 -9.850006,27.119995 1.800003,38.720001c-1.800003,-11.929993 -6.210007,-20.910004 7.179993,-31.850006c3.354004,-2.742981 6.630997,-4.727997 10.003006,-6.621002c-3.779999,-2.122986 -7.684998,-4.132996 -11.957001,-6.968994c-2.699005,2.518005 -5.143997,4.802002 -7.026001,6.720001z"/>
   <path fill="#007f00" id="svg_15" stroke-linejoin="bevel" stroke="#FFFFFF" d="m218.287994,268.509003c-6.986008,-4.442017 -14.610001,-8.368011 -21.666,-12.317993c-4.123001,-2.309006 -8.052002,-4.626007 -11.544006,-7.062012c-19.949997,-13.910004 -20.110001,-37.599991 8.970001,-49.199997c0.839005,-0.334 1.699997,-0.677002 2.574005,-1.024002c-8.702011,-3.453995 -19.041,-7.548004 -28.858002,-12.621994c-35.285004,22.697998 -23.451996,53.638 -12.766006,65.925003c5.244003,6.019012 12.371017,11.304993 19.957016,16.300995c7.218002,4.753021 14.845993,9.243011 21.666992,13.848999c5.177002,3.494995 9.889999,7.056 13.596008,10.851013c13.089996,13.410004 2.300003,28.449982 -3.110001,32.509979c-3.360001,2.519012 -6.904007,4.778992 -10.486008,6.994019c7.544006,4.66098 15.253006,9.116974 21.811005,15.287994c8.746002,-6.794006 16.653,-15.453003 21.024994,-27.020996c10.082001,-26.684021 -3.5,-41.235016 -21.169998,-52.471008z"/>
   <path fill="#003f7f" id="svg_16" stroke-linejoin="bevel" stroke="#04385e" d="m225.479996,186.283997c-4.603989,-2.960999 -9.998001,-5.783997 -16.312988,-8.404999c-3.567001,-1.479004 -7.877014,-2.776993 -12.545013,-4.098999c-22.536987,-6.378998 -53.423996,-13.289001 -49.363998,-43.600998c0.350006,-0.860001 1.340012,-1.199997 1.880005,-0.360001c1.600006,2.5 6.309998,6.800003 15.270004,5.919998c6.681,-0.660004 19.409988,-9.830002 14.539993,-14.220009c-5.139999,-4.629997 -14.020004,-4.589996 -19.929993,-4.079987c-16.990005,1.469994 -27.650009,16.639992 -26.470001,29.889992c1.563995,17.498993 17.53299,29.815994 35.216003,38.955002c9.816986,5.074005 20.155991,9.167999 28.857986,12.622009c0.875,0.347 1.736008,0.688995 2.575012,1.023987c29.079987,11.600006 28.919998,35.290009 8.970001,49.200012c-3.492004,2.435989 -7.421005,4.752991 -11.545013,7.061981c7.056,3.950012 14.680008,7.876007 21.666,12.318024c7.584,-4.994995 14.709,-10.282013 19.949005,-16.300003c10.695007,-12.28801 22.529999,-43.228012 -12.757004,-65.92601z"/>
   <path fill="#007f00" id="svg_17" stroke-linejoin="bevel" stroke="#FFFFFF" d="m215.606995,412.779999c-1.883011,-1.917999 -4.328003,-4.203003 -7.027008,-6.721985c-3.751999,-3.501007 -7.994995,-7.460022 -11.957993,-11.563019c-2.786011,-2.885986 -5.434006,-5.837006 -7.654007,-8.746002c-9.300003,-12.169983 -0.25,-19.98999 6.87001,-23.769989c0.258987,-0.138 0.521988,-0.278015 0.784988,-0.416992c-6.838989,-3.640015 -14.606995,-7.96701 -21.809982,-13.562012c-1.496002,1.407013 -2.936996,2.897003 -4.296005,4.507996c-12.410004,14.700012 -9.169998,32.181 0,41.649994c5.247009,5.416016 9.880005,9.069 14.145996,11.900024c4.272003,2.835999 8.177002,4.845978 11.957001,6.968994c3.371002,1.893982 6.645996,3.877991 9.996994,6.621002c13.399994,10.938995 8.990005,19.919983 7.190002,31.849976c11.650009,-11.597992 12.491013,-27.807983 1.800003,-38.717987z"/>
   <path fill="#003f7f" id="svg_18" stroke-linejoin="bevel" stroke="#FFFFFF" d="m222.727997,352.509003c-1.358994,-1.610016 -2.800003,-3.101013 -4.29599,-4.507996c-6.558014,-6.171021 -14.267014,-10.627014 -21.811005,-15.287994c-3.584,-2.215027 -7.130005,-4.476013 -10.492996,-6.994019c-5.400009,-4.059998 -16.200012,-19.100006 -3.101013,-32.509979c3.705002,-3.795013 8.419006,-7.355011 13.595001,-10.851013c-6.820999,-4.605011 -14.44899,-9.096008 -21.666992,-13.848999c-17.669006,11.234985 -31.25,25.787018 -21.167007,52.470001c4.372009,11.567993 12.279007,20.227997 21.025009,27.020996c7.201996,5.595001 14.970993,9.921997 21.809998,13.562012c0.261993,0.139008 0.524994,0.278992 0.783997,0.416992c7.119995,3.778992 16.169998,11.600006 6.869995,23.77002c-2.220993,2.908997 -4.867996,5.859985 -7.654999,8.745972c3.963013,4.103027 8.206009,8.062012 11.958008,11.563019c4.264999,-2.830017 8.897995,-6.483002 14.147003,-11.89801c9.169998,-9.470001 12.410995,-26.950989 0.000992,-41.651001z"/>
  </g>
 </g>
</svg>